<svg 
 xmlns="http://www.w3.org/2000/svg"
 xmlns:xlink="http://www.w3.org/1999/xlink"
 width="26px" height="25px">
<defs>
<filter filterUnits="userSpaceOnUse" id="Filter_0" x="0px" y="0px" width="26px" height="25px"  >
    <feOffset in="SourceAlpha" dx="0" dy="-1" />
    <feGaussianBlur result="blurOut" stdDeviation="1" />
    <feFlood flood-color="rgb(0, 0, 0)" result="floodOut" />
    <feComposite operator="atop" in="floodOut" in2="blurOut" />
    <feComponentTransfer><feFuncA type="linear" slope="0.4"/></feComponentTransfer>
    <feMerge>
    <feMergeNode/>
    <feMergeNode in="SourceGraphic"/>
  </feMerge>
</filter>
<linearGradient id="PSgrad_0" x1="0%" x2="0%" y1="100%" y2="0%">
  <stop offset="0%" stop-color="rgb(140,140,140)" stop-opacity="1" />
  <stop offset="100%" stop-color="rgb(181,181,181)" stop-opacity="1" />
</linearGradient>

</defs>
<g filter="url(#Filter_0)">
<path fill-rule="evenodd"  fill="rgb(255, 255, 255)"
 d="M14.912,17.800 C15.178,17.983 15.577,18.169 16.101,18.116 C16.918,18.034 22.488,18.011 23.023,13.011 C23.023,6.427 18.312,2.665 12.500,2.665 C6.688,2.665 1.977,7.137 1.977,12.948 C1.977,18.761 6.688,23.335 12.500,23.335 C14.938,23.335 17.183,22.522 18.967,21.155 L17.374,19.124 C16.028,20.145 14.337,20.743 12.500,20.743 C8.114,20.743 4.558,17.314 4.558,12.927 C4.558,8.542 8.114,5.247 12.500,5.247 C16.887,5.247 20.442,8.302 20.442,13.011 C20.442,15.011 19.311,15.477 18.688,15.774 C18.065,16.071 16.831,16.062 16.526,16.062 C16.425,16.062 16.338,16.012 16.264,15.933 C16.191,15.855 16.155,15.729 16.155,15.571 C16.155,15.444 16.191,15.308 16.281,14.877 L17.435,8.011 L15.142,8.011 L14.985,9.158 C14.446,8.294 13.531,7.553 12.401,7.553 C10.814,7.553 9.512,8.264 8.498,9.762 C7.660,10.993 7.241,12.337 7.241,13.829 C7.241,15.034 7.588,15.991 8.283,16.718 C8.978,17.444 10.314,17.803 11.368,17.803 C12.346,17.803 13.434,17.341 14.251,16.470 C14.001,16.737 14.644,17.616 14.912,17.800 ZM13.850,13.073 C13.427,14.625 12.179,15.636 11.062,15.330 C9.946,15.026 9.383,13.522 9.806,11.970 C10.230,10.418 11.478,9.407 12.595,9.712 C13.711,10.016 14.274,11.521 13.850,13.073 Z"/>
</g>
<path fill="url(#PSgrad_0)"
 d="M14.912,17.800 C15.178,17.983 15.577,18.169 16.101,18.116 C16.918,18.034 22.488,18.011 23.023,13.011 C23.023,6.427 18.312,2.665 12.500,2.665 C6.688,2.665 1.977,7.137 1.977,12.948 C1.977,18.761 6.688,23.335 12.500,23.335 C14.938,23.335 17.183,22.522 18.967,21.155 L17.374,19.124 C16.028,20.145 14.337,20.743 12.500,20.743 C8.114,20.743 4.558,17.314 4.558,12.927 C4.558,8.542 8.114,5.247 12.500,5.247 C16.887,5.247 20.442,8.302 20.442,13.011 C20.442,15.011 19.311,15.477 18.688,15.774 C18.065,16.071 16.831,16.062 16.526,16.062 C16.425,16.062 16.338,16.012 16.264,15.933 C16.191,15.855 16.155,15.729 16.155,15.571 C16.155,15.444 16.191,15.308 16.281,14.877 L17.435,8.011 L15.142,8.011 L14.985,9.158 C14.446,8.294 13.531,7.553 12.401,7.553 C10.814,7.553 9.512,8.264 8.498,9.762 C7.660,10.993 7.241,12.337 7.241,13.829 C7.241,15.034 7.588,15.991 8.283,16.718 C8.978,17.444 10.314,17.803 11.368,17.803 C12.346,17.803 13.434,17.341 14.251,16.470 C14.001,16.737 14.644,17.616 14.912,17.800 ZM13.850,13.073 C13.427,14.625 12.179,15.636 11.062,15.330 C9.946,15.026 9.383,13.522 9.806,11.970 C10.230,10.418 11.478,9.407 12.595,9.712 C13.711,10.016 14.274,11.521 13.850,13.073 Z"/>
</svg>