<svg 
 xmlns="http://www.w3.org/2000/svg"
 xmlns:xlink="http://www.w3.org/1999/xlink"
 width="32px" height="24px">
<path fill-rule="evenodd"  fill="rgb(33, 33, 33)"
 d="M15.423,8.526 C15.630,6.900 18.116,2.251 20.085,1.178 C20.051,1.463 20.010,1.684 19.896,1.931 C20.465,1.354 21.102,1.078 21.985,1.007 C21.774,1.447 21.603,1.667 21.339,1.889 C21.816,1.652 23.234,1.201 23.331,1.737 C23.434,2.301 21.979,2.728 20.855,2.902 C23.501,3.028 26.142,4.333 27.257,8.809 C27.926,8.972 29.473,8.983 30.808,8.236 C30.349,9.292 29.524,10.272 27.550,10.333 C28.383,10.869 29.701,10.883 30.933,10.706 C30.155,11.422 29.587,12.079 27.312,12.118 C23.896,23.683 7.262,25.423 1.005,15.853 C3.690,18.521 8.219,19.296 12.032,15.790 C10.238,15.722 9.000,14.336 11.007,13.126 C9.538,13.206 8.475,12.855 7.439,11.194 C7.958,10.686 8.584,10.464 9.362,10.453 C8.498,10.081 6.779,9.916 6.212,7.317 C6.836,7.047 7.450,7.033 7.901,7.077 C6.718,6.544 5.539,5.338 5.487,3.271 C7.462,3.902 13.685,6.282 15.423,8.526 Z"/>
</svg>