<svg 
 xmlns="http://www.w3.org/2000/svg"
 xmlns:xlink="http://www.w3.org/1999/xlink"
 width="29px" height="27px">
<defs>
<filter filterUnits="userSpaceOnUse" id="Filter_0" x="0px" y="0px" width="29px" height="27px"  >
    <feOffset in="SourceAlpha" dx="0" dy="-1" />
    <feGaussianBlur result="blurOut" stdDeviation="0" />
    <feFlood flood-color="rgb(0, 0, 0)" result="floodOut" />
    <feComposite operator="atop" in="floodOut" in2="blurOut" />
    <feComponentTransfer><feFuncA type="linear" slope="0"/></feComponentTransfer>
    <feMerge>
    <feMergeNode/>
    <feMergeNode in="SourceGraphic"/>
  </feMerge>
</filter>
<linearGradient id="PSgrad_0" x1="0%" x2="0%" y1="100%" y2="0%">
  <stop offset="0%" stop-color="rgb(140,140,140)" stop-opacity="1" />
  <stop offset="100%" stop-color="rgb(200,200,200)" stop-opacity="1" />
</linearGradient>

</defs>
<g filter="url(#Filter_0)">
<path fill-rule="evenodd"  fill="rgb(255, 255, 255)"
 d="M16.600,18.000 C19.750,19.1000 25.000,21.000 25.000,21.000 L25.000,24.000 L15.550,24.000 L13.450,24.000 L4.000,24.000 L4.000,21.000 C4.000,21.000 9.250,19.1000 12.400,18.000 C13.015,17.414 12.900,16.828 12.496,16.243 C12.102,15.934 11.745,15.552 11.440,15.087 C11.410,15.058 11.380,15.029 11.350,15.000 C11.365,15.000 11.376,15.000 11.390,15.000 C10.720,13.937 10.300,12.544 10.300,11.000 C10.300,7.686 12.180,5.669 14.500,5.669 C16.820,5.669 18.700,7.686 18.700,11.000 C18.700,12.549 18.277,13.941 17.601,15.000 C17.619,15.000 17.632,15.000 17.650,15.000 C17.606,15.042 17.563,15.084 17.519,15.126 C17.227,15.557 16.893,15.922 16.522,16.215 C16.102,16.810 15.975,17.405 16.600,18.000 Z"/>
</g>
<path fill="url(#PSgrad_0)"
 d="M16.600,18.000 C19.750,19.1000 25.000,21.000 25.000,21.000 L25.000,24.000 L15.550,24.000 L13.450,24.000 L4.000,24.000 L4.000,21.000 C4.000,21.000 9.250,19.1000 12.400,18.000 C13.015,17.414 12.900,16.828 12.496,16.243 C12.102,15.934 11.745,15.552 11.440,15.087 C11.410,15.058 11.380,15.029 11.350,15.000 C11.365,15.000 11.376,15.000 11.390,15.000 C10.720,13.937 10.300,12.544 10.300,11.000 C10.300,7.686 12.180,5.669 14.500,5.669 C16.820,5.669 18.700,7.686 18.700,11.000 C18.700,12.549 18.277,13.941 17.601,15.000 C17.619,15.000 17.632,15.000 17.650,15.000 C17.606,15.042 17.563,15.084 17.519,15.126 C17.227,15.557 16.893,15.922 16.522,16.215 C16.102,16.810 15.975,17.405 16.600,18.000 Z"/>
</svg>